<svg width="22" height="21" viewBox="0 0 22 21" fill="none" xmlns="http://www.w3.org/2000/svg">
<path d="M21.1406 14.1592C21.6153 14.1592 22 13.8088 22 13.3765V3.51438C22 1.78799 20.458 0.383545 18.5625 0.383545H3.4375C1.54201 0.383545 0 1.78799 0 3.51438V17.2901C0 19.0165 1.54201 20.4209 3.4375 20.4209H18.5625C20.458 20.4209 22 19.0165 22 17.2901C22 16.8577 21.6153 16.5074 21.1406 16.5074C20.666 16.5074 20.2812 16.8577 20.2812 17.2901C20.2812 18.1532 19.5102 18.8555 18.5625 18.8555H14.3516V13.1417H16.3405C16.7754 13.1417 17.1418 12.8457 17.1939 12.4526L17.3077 11.5916C17.3691 11.1256 16.9698 10.7153 16.4543 10.7153H14.3516V8.09323C14.3516 7.44474 14.9286 6.91917 15.6406 6.91917H16.7148C17.1895 6.91917 17.5742 6.56878 17.5742 6.13646V5.34473C17.5742 4.94374 17.2417 4.60681 16.8036 4.56615C16.3679 4.52579 15.9068 4.49277 15.6406 4.49277C14.6384 4.49277 13.6339 4.87785 12.8846 5.54912C12.1127 6.24072 11.6875 7.14664 11.6875 8.10011V10.7153H9.75391C9.27924 10.7153 8.89453 11.0657 8.89453 11.498V12.359C8.89453 12.7913 9.27924 13.1417 9.75391 13.1417H11.6875V18.8555H3.4375C2.48984 18.8555 1.71875 18.1532 1.71875 17.2901V3.51438C1.71875 2.65126 2.48984 1.94896 3.4375 1.94896H18.5625C19.5102 1.94896 20.2812 2.65126 20.2812 3.51438V13.3765C20.2812 13.8088 20.666 14.1592 21.1406 14.1592Z" fill="black"/>
</svg>
