<svg xmlns="http://www.w3.org/2000/svg" width="35.751" height="35.751" viewBox="0 0 35.751 35.751">
  <path id="_003-form" data-name="003-form" d="M34.354,35.751a1.4,1.4,0,0,1-1.4-1.4,5.017,5.017,0,0,0-4.994-5.027H26.78a5.017,5.017,0,0,0-4.994,5.027,1.4,1.4,0,0,1-2.793,0,7.813,7.813,0,0,1,7.787-7.82h1.183a7.813,7.813,0,0,1,7.787,7.82A1.4,1.4,0,0,1,34.354,35.751ZM33.237,18.5A5.935,5.935,0,1,0,27.3,24.439,5.942,5.942,0,0,0,33.237,18.5Zm-2.793,0A3.142,3.142,0,1,1,27.3,15.362,3.146,3.146,0,0,1,30.444,18.5ZM16.2,34.354a1.4,1.4,0,0,0-1.4-1.4H8.378a5.591,5.591,0,0,1-5.585-5.585v-19A5.591,5.591,0,0,1,8.378,2.793H21.23a5.591,5.591,0,0,1,5.585,5.585,1.4,1.4,0,1,0,2.793,0A8.387,8.387,0,0,0,21.228,0H8.378A8.387,8.387,0,0,0,0,8.378v19a8.387,8.387,0,0,0,8.378,8.378H14.8A1.4,1.4,0,0,0,16.2,34.354Zm2.3-18.5a1.4,1.4,0,0,0-1.4-1.4H9.566a1.4,1.4,0,0,0,0,2.793h7.541A1.4,1.4,0,0,0,18.5,15.85ZM21.3,10.474a1.4,1.4,0,0,0-1.4-1.4H9.566a1.4,1.4,0,0,0,0,2.793H19.9A1.4,1.4,0,0,0,21.3,10.474ZM18.5,26.534a1.4,1.4,0,0,0-1.4-1.4H9.566a1.4,1.4,0,0,0,0,2.793h7.541A1.4,1.4,0,0,0,18.5,26.534Zm0-5.377a1.4,1.4,0,0,0-1.4-1.4H9.566a1.4,1.4,0,0,0,0,2.793h7.541A1.4,1.4,0,0,0,18.5,21.157Z" fill="#0277fe"/>
</svg>
