<?xml version="1.0" encoding="utf-8"?>
<!-- Generator: Adobe Illustrator 21.1.0, SVG Export Plug-In . SVG Version: 6.00 Build 0)  -->
<svg version="1.1" id="Layer_1" xmlns="http://www.w3.org/2000/svg" xmlns:xlink="http://www.w3.org/1999/xlink" x="0px" y="0px"
	 viewBox="0 0 305 421" style="enable-background:new 0 0 305 421;" xml:space="preserve">
<style type="text/css">
	.st0{fill:#020202;}
</style>
<g>
	<path class="st0" d="M93,251.7c12.9-3.4,25.1-7.2,37.5-9.8c7.3-1.5,14.9-1.6,22.4-1.7c31.7-0.4,53.5-19.8,57.3-51.3
		c0.2-1.5,0.4-3,0.6-4.5c0.9-6.7,0-11.6-6.5-16.4c-21.3-15.5-28.3-43.6-18.2-68c9.7-23.5,35.2-38.8,59.6-35.7
		c27.2,3.5,48.4,23.2,51.9,49.2c3,23-4.7,42.1-23.5,55.9c-4.1,3-5.1,5.9-5.3,10.6c-0.7,26.5-7.9,51.2-22.9,73.3
		c-17.5,25.7-42.3,39.4-72.7,43.4c-12.2,1.6-24.6,1.5-36.8,3.3c-11.9,1.7-21.8,7.7-29.7,17.4c7,8.3,12.1,17.5,14.4,28.2
		c6.6,31.1-13.6,61.8-45.3,68.8c-30.4,6.7-61.7-13.2-68.7-43.4c-5.6-24.1,3.7-47.8,24.4-61.9c2.5-1.7,3.5-3.4,3.5-6.4
		c0-61.4,0-122.7,0.1-184c0-3.3-1.4-5-3.9-6.8C11,97.4,2.2,77.5,6.7,53.2C11.4,28.5,26.9,12.8,51.5,7c26.9-6.4,54.5,7.8,65.8,33.2
		c11.2,25.1,3.2,54.9-19.3,70.7c-3.9,2.7-5.2,5.4-5.2,10.1C93,162.9,93,204.7,93,246.5C93,248.5,93,250.5,93,251.7z M269.5,122.5
		c0-16.4-13.3-29.6-29.6-29.6s-29.5,13.4-29.4,29.7c0.1,16.4,13.2,29.5,29.6,29.5C256.4,152.1,269.5,138.9,269.5,122.5z M93.5,63.8
		c-0.1-16.4-13.4-29.6-29.6-29.5C47.6,34.4,34.5,47.7,34.5,64c0.1,16.5,13.1,29.4,29.6,29.3C80.6,93.3,93.5,80.2,93.5,63.8z
		 M34.6,357.3c0,16.3,13.5,29.7,29.5,29.6c16.3-0.2,29.3-13.4,29.4-29.7c0-16.3-13.1-29.4-29.5-29.4
		C47.5,327.8,34.5,340.9,34.6,357.3z"/>
</g>
</svg>
