<svg width="120" height="38" viewBox="0 0 120 38" fill="none" xmlns="http://www.w3.org/2000/svg">
<path d="M87.1901 10.4589H84.8172L84.8247 27.6522H94.4241V25.526H87.1977L87.1901 10.459V10.4589ZM103.565 24.6333C102.972 25.2371 101.974 25.8411 100.626 25.8411C98.819 25.8411 98.091 24.9748 98.091 23.8459C98.091 22.1399 99.3043 21.3261 101.893 21.3261C102.378 21.3261 103.16 21.3786 103.565 21.4572V24.6334L103.565 24.6333ZM101.111 14.2126C99.1947 14.2126 97.4371 14.8739 96.0658 15.9746L96.9044 17.389C97.8752 16.8377 99.0615 16.2863 100.76 16.2863C102.702 16.2863 103.565 17.2577 103.565 18.8852V19.7252C103.187 19.6463 102.405 19.5937 101.92 19.5937C97.7671 19.5937 95.6639 21.0111 95.6639 23.9774C95.6639 26.6286 97.3357 27.9672 99.8703 27.9672C101.578 27.9672 103.214 27.2059 103.78 25.9723L104.212 27.6521H105.884V18.8588C105.884 16.0766 104.643 14.2127 101.111 14.2127V14.2126ZM113.54 25.9197C112.65 25.9197 111.868 25.8147 111.275 25.5521V17.5988C112.084 16.9423 113.082 16.4699 114.349 16.4699C116.641 16.4699 117.531 18.0448 117.531 20.591C117.531 24.2132 116.101 25.9196 113.54 25.9196V25.9197ZM114.537 14.2124C112.416 14.2124 111.275 15.6169 111.275 15.6169V13.3989L111.267 10.4591H108.949L108.956 27.2321C110.116 27.7043 111.706 27.9669 113.432 27.9669C117.854 27.9669 119.984 25.2109 119.984 20.4598C119.984 16.7061 118.016 14.2123 114.537 14.2123V14.2124ZM61.3959 12.3227C63.4991 12.3227 64.8474 13.0051 65.7374 13.6877L66.7569 11.968C65.3671 10.7816 63.4976 10.1439 61.5037 10.1439C56.4614 10.1439 52.9292 13.1363 52.9292 19.1736C52.9292 25.4997 56.7399 27.9669 61.0992 27.9669C63.2834 27.9669 65.1441 27.4682 66.3573 26.9696L66.3077 20.2104V18.0844H59.8362V20.2106H63.9617L64.0115 25.3421C63.4723 25.6046 62.5286 25.8146 61.2613 25.8146C57.756 25.8146 55.41 23.6679 55.41 19.1472C55.41 14.5539 57.8368 12.3226 61.396 12.3226L61.3959 12.3227ZM78.0837 10.4589H75.7647L75.7722 13.3464V23.321C75.7722 26.1032 77.0126 27.967 80.5448 27.967C81.0331 27.967 81.5104 27.9237 81.9741 27.8419V25.8147C81.6384 25.8647 81.2802 25.8932 80.8956 25.8932C78.9542 25.8932 78.0912 24.9221 78.0912 23.2947V16.4174H81.9741V14.5274H78.0912L78.0837 10.4589ZM69.8806 27.6522H72.1996V14.5274H69.8806V27.6519V27.6522ZM69.8806 12.7164H72.1996V10.4589H69.8806V12.7164Z" fill="#8C929D"/>
<path fill-rule="evenodd" clip-rule="evenodd" d="M21.1481 37.9033L28.9062 14.6454H13.3905L21.1483 37.9033H21.1481Z" fill="#E24329"/>
<path fill-rule="evenodd" clip-rule="evenodd" d="M21.1481 37.9033L13.39 14.6454H2.51697L21.1483 37.9031L21.1481 37.9033Z" fill="#FC6D26"/>
<path fill-rule="evenodd" clip-rule="evenodd" d="M2.51703 14.6453L0.159234 21.7131C-0.0556709 22.3579 0.179766 23.0642 0.742922 23.4625L21.1481 37.9033L2.51703 14.6452V14.6453Z" fill="#FCA326"/>
<path fill-rule="evenodd" clip-rule="evenodd" d="M2.51708 14.6453H13.3901L8.71716 0.637233C8.47682 -0.0835453 7.43001 -0.0835453 7.18978 0.637233L2.51697 14.6453H2.51708Z" fill="#E24329"/>
<path fill-rule="evenodd" clip-rule="evenodd" d="M21.1481 37.9033L28.9062 14.6454H39.7792L21.1483 37.9031L21.1481 37.9033Z" fill="#FC6D26"/>
<path fill-rule="evenodd" clip-rule="evenodd" d="M39.7791 14.6453L42.1369 21.7131C42.3518 22.3579 42.1164 23.0642 41.5532 23.4625L21.1481 37.9033L39.7791 14.6452V14.6453Z" fill="#FCA326"/>
<path fill-rule="evenodd" clip-rule="evenodd" d="M39.7791 14.6453H28.9061L33.5791 0.637233C33.8195 -0.0835453 34.8663 -0.0835453 35.1067 0.637233L39.7793 14.6453H39.7791Z" fill="#E24329"/>
</svg>
