<?xml version="1.0" encoding="UTF-8" standalone="no"?>
<svg
   xmlns:dc="http://purl.org/dc/elements/1.1/"
   xmlns:cc="http://creativecommons.org/ns#"
   xmlns:rdf="http://www.w3.org/1999/02/22-rdf-syntax-ns#"
   xmlns:svg="http://www.w3.org/2000/svg"
   xmlns="http://www.w3.org/2000/svg"
   xmlns:sodipodi="http://sodipodi.sourceforge.net/DTD/sodipodi-0.dtd"
   xmlns:inkscape="http://www.inkscape.org/namespaces/inkscape"
   id="Layer_1"
   data-name="Layer 1"
   viewBox="0 0 400.00001 96.000001"
   version="1.1"
   sodipodi:docname="horizontal_logo_blue.svg"
   width="400"
   height="96"
   inkscape:version="0.92.3 (2405546, 2018-03-11)">
  <metadata
     id="metadata29">
    <rdf:RDF>
      <cc:Work
         rdf:about="">
        <dc:format>image/svg+xml</dc:format>
        <dc:type
           rdf:resource="http://purl.org/dc/dcmitype/StillImage" />
        <dc:title>horizontal_logo_blue</dc:title>
      </cc:Work>
    </rdf:RDF>
  </metadata>
  <sodipodi:namedview
     pagecolor="#ffffff"
     bordercolor="#666666"
     borderopacity="1"
     objecttolerance="10"
     gridtolerance="10"
     guidetolerance="10"
     inkscape:pageopacity="0"
     inkscape:pageshadow="2"
     inkscape:window-width="2520"
     inkscape:window-height="1352"
     id="namedview27"
     showgrid="false"
     inkscape:zoom="1.5420752"
     inkscape:cx="-99.54119"
     inkscape:cy="47.82"
     inkscape:window-x="20"
     inkscape:window-y="68"
     inkscape:window-maximized="0"
     inkscape:current-layer="Layer_1" />
  <defs
     id="defs4">
    <style
       id="style2">.cls-1{fill:#2c7df7;}.cls-2,.cls-3,.cls-7{isolation:isolate;}.cls-3{font-size:39.33px;font-family:Museo500-Regular, Museo;}.cls-3,.cls-7{fill:#123262;}.cls-4{letter-spacing:-0.07em;}.cls-5{letter-spacing:-0.01em;}.cls-6{letter-spacing:0em;}.cls-7{font-size:26.68px;font-family:Arial-ItalicMT, Arial;font-style:italic;}</style>
  </defs>
  <title
     id="title6">horizontal_logo_blue</title>
  <path
     class="cls-1"
     d="m 45.58,96.000001 q -10.3,0 -15,-4.93 -4.7,-4.93 -4.72,-10.62 a 6.91,6.91 0 0 1 0.82,-3.51 6,6 0 0 1 2.25,-2.25 6.91,6.91 0 0 1 3.51,-0.82 6.92,6.92 0 0 1 3.51,0.82 6,6 0 0 1 2.25,2.25 6.91,6.91 0 0 1 0.8,3.51 6.62,6.62 0 0 1 -1.2,4.11 5.59,5.59 0 0 1 -2.85,2.08 7.79,7.79 0 0 0 4.49,2.79 22.19,22.19 0 0 0 6.13,0.88 13.62,13.62 0 0 0 7.72,-2.3 13.39,13.39 0 0 0 5.1,-6.79 29.52,29.52 0 0 0 1.61,-10.2 27.71,27.71 0 0 0 -1.81,-10.57 13.06,13.06 0 0 0 -5.19,-6.57 13.9,13.9 0 0 0 -7.45,-2.13 14.37,14.37 0 0 0 -6.55,2.18 l -4.82,2.43 v -2.43 l 21.69,-28.92 h -30 v 30 a 10.66,10.66 0 0 0 1.63,6.15 5.68,5.68 0 0 0 5,2.41 8.44,8.44 0 0 0 5,-1.75 17.81,17.81 0 0 0 4.16,-4.27 1.61,1.61 0 0 1 0.55,-0.71 1.09,1.09 0 0 1 0.79,-0.28 2.56,2.56 0 0 1 1.42,0.6 3,3 0 0 1 0.77,2 14,14 0 0 1 -0.28,1.53 14.51,14.51 0 0 1 -5.15,6.35 12.76,12.76 0 0 1 -7.23,2.19 q -9.75,0 -13.48,-3.83 -3.73,-3.83 -3.72,-10.4 v -30 H 0 v -5.58 H 15.34 V 6.7100006 l -3.51,-3.5 V 0.36000061 H 22 L 25.83,2.3600006 V 19.420001 l 39.68,-0.06 3.94,3.94 -24.31,24.28 a 16.31,16.31 0 0 1 4.6,-1.1 19.87,19.87 0 0 1 8.87,2.52 18.33,18.33 0 0 1 7.67,6.8 24.34,24.34 0 0 1 3.45,8.22 34.84,34.84 0 0 1 0.82,7 29.21,29.21 0 0 1 -3,13 19.15,19.15 0 0 1 -9,9 29.18,29.18 0 0 1 -13,3 z"
     id="path8"
     inkscape:connector-curvature="0"
     style="fill:#2c7df7" />
  <g
     class="cls-2"
     id="g20"
     style="isolation:isolate"
     transform="translate(0,0.36000061)">
    <text
       class="cls-3"
       transform="translate(90.49,47.82)"
       id="text18"
       style="font-size:39.33000183px;font-family:Museo500-Regular, Museo;isolation:isolate;fill:#123262">NFT Warranties</text>
  </g>
  <g
     class="cls-2"
     id="g24"
     style="isolation:isolate"
     transform="translate(0,0.36000061)">
    <text
       class="cls-7"
       transform="translate(111.55,82.03)"
       id="text22"
       style="font-style:italic;font-size:26.68000031px;font-family:Arial-ItalicMT, Arial;isolation:isolate;fill:#123262">by Damian Barabonkov</text>
  </g>
</svg>
