<svg id="Layer_1" data-name="Layer 1" xmlns="http://www.w3.org/2000/svg" viewBox="0 0 195.84 95.64"><defs><style>.cls-1{fill:#2c7df7;}.cls-2,.cls-3,.cls-7{isolation:isolate;}.cls-3{font-size:39.33px;font-family:Museo500-Regular, Museo;}.cls-3,.cls-7{fill:#123262;}.cls-4{letter-spacing:-0.07em;}.cls-5{letter-spacing:-0.01em;}.cls-6{letter-spacing:0em;}.cls-7{font-size:26.68px;font-family:Arial-ItalicMT, Arial;font-style:italic;}</style></defs><title>horizontal_logo_blue</title><path class="cls-1" d="M45.58,95.64q-10.3,0-15-4.93T25.86,80.09a6.91,6.91,0,0,1,.82-3.51,6,6,0,0,1,2.25-2.25,6.91,6.91,0,0,1,3.51-.82,6.92,6.92,0,0,1,3.51.82,6,6,0,0,1,2.25,2.25A6.91,6.91,0,0,1,39,80.09a6.62,6.62,0,0,1-1.2,4.11,5.59,5.59,0,0,1-2.85,2.08,7.79,7.79,0,0,0,4.49,2.79,22.19,22.19,0,0,0,6.13.88,13.62,13.62,0,0,0,7.72-2.3,13.39,13.39,0,0,0,5.1-6.79A29.52,29.52,0,0,0,60,70.66a27.71,27.71,0,0,0-1.81-10.57A13.06,13.06,0,0,0,53,53.52a13.9,13.9,0,0,0-7.45-2.13A14.37,14.37,0,0,0,39,53.57L34.18,56V53.57L55.87,24.65h-30v30A10.66,10.66,0,0,0,27.5,60.8a5.68,5.68,0,0,0,5,2.41,8.44,8.44,0,0,0,5-1.75,17.81,17.81,0,0,0,4.16-4.27,1.61,1.61,0,0,1,.55-.71A1.09,1.09,0,0,1,43,56.2a2.56,2.56,0,0,1,1.42.6,3,3,0,0,1,.77,2,14,14,0,0,1-.28,1.53,14.51,14.51,0,0,1-5.15,6.35,12.76,12.76,0,0,1-7.23,2.19q-9.75,0-13.48-3.83t-3.72-10.4v-30H0V19.06H15.34V6.35L11.83,2.85V0H22l3.83,2V19.06L65.51,19l3.94,3.94L45.14,47.22a16.31,16.31,0,0,1,4.6-1.1,19.87,19.87,0,0,1,8.87,2.52,18.33,18.33,0,0,1,7.67,6.8,24.34,24.34,0,0,1,3.45,8.22,34.84,34.84,0,0,1,.82,7,29.21,29.21,0,0,1-3,13,19.15,19.15,0,0,1-9,9,29.18,29.18,0,0,1-13,3Z" transform="translate(0 0)"/><g class="cls-2"><text class="cls-3" transform="translate(90.49 47.82)"><tspan class="cls-4">T</tspan><tspan x="22.06" y="0">e</tspan><tspan class="cls-5" x="43.77" y="0">z</tspan><tspan class="cls-6" x="63.23" y="0">os</tspan></text></g><g class="cls-2"><text class="cls-7" transform="translate(111.55 82.03)">Israel</text></g></svg>