<svg width="22" height="21" viewBox="0 0 22 21" fill="none" xmlns="http://www.w3.org/2000/svg">
<path d="M6.01596 16.9378H4.7269C4.25223 16.9378 3.86752 16.5875 3.86752 16.1551V8.87594C3.86752 8.44361 4.25223 8.09323 4.7269 8.09323H6.01596C6.49063 8.09323 6.87534 8.44361 6.87534 8.87594V16.1551C6.87534 16.5875 6.49063 16.9378 6.01596 16.9378ZM7.17545 5.27532C7.17545 4.38973 6.38657 3.67092 5.41473 3.67092C4.43921 3.67092 3.65234 4.38973 3.65234 5.27532C3.65234 6.16122 4.43921 6.88003 5.41473 6.88003C6.38657 6.88003 7.17545 6.16122 7.17545 5.27532ZM18.1328 16.1551V12.0719C18.1328 9.69763 17.5821 7.93669 14.5369 7.93669C13.0736 7.93669 12.0913 8.60321 11.6904 9.29634H11.6875V8.87594C11.6875 8.44361 11.3028 8.09323 10.8281 8.09323H9.625C9.15033 8.09323 8.76562 8.44361 8.76562 8.87594V16.1551C8.76562 16.5875 9.15033 16.9378 9.625 16.9378H10.8281C11.3028 16.9378 11.6875 16.5875 11.6875 16.1551V12.5464C11.6875 11.3964 12.0089 10.2822 13.5741 10.2822C15.118 10.2822 15.168 11.5974 15.168 12.6195V16.1551C15.168 16.5875 15.5527 16.9378 16.0273 16.9378H17.2734C17.7481 16.9378 18.1328 16.5875 18.1328 16.1551V16.1551ZM22 17.2901C22 16.8577 21.6153 16.5074 21.1406 16.5074C20.666 16.5074 20.2812 16.8577 20.2812 17.2901C20.2812 18.1532 19.5102 18.8555 18.5625 18.8555H3.4375C2.48984 18.8555 1.71875 18.1532 1.71875 17.2901V3.51438C1.71875 2.65126 2.48984 1.94896 3.4375 1.94896H18.5625C19.5102 1.94896 20.2812 2.65126 20.2812 3.51438V13.3374C20.2812 13.7697 20.666 14.1201 21.1406 14.1201C21.6153 14.1201 22 13.7697 22 13.3374V3.51438C22 1.78799 20.458 0.383545 18.5625 0.383545H3.4375C1.54201 0.383545 0 1.78799 0 3.51438V17.2901C0 19.0165 1.54201 20.4209 3.4375 20.4209H18.5625C20.458 20.4209 22 19.0165 22 17.2901Z" fill="black"/>
</svg>
