<?xml version="1.0" encoding="utf-8"?>
<!-- Generator: Adobe Illustrator 21.1.0, SVG Export Plug-In . SVG Version: 6.00 Build 0)  -->
<svg version="1.1" id="Capa_1" xmlns="http://www.w3.org/2000/svg" xmlns:xlink="http://www.w3.org/1999/xlink" x="0px" y="0px"
	 viewBox="0 0 512 512" style="enable-background:new 0 0 512 512;" xml:space="preserve">
<style type="text/css">
	.st0{fill:#FFFFFF;}
</style>
<g transform="translate(1 1)">
	<g>
		<g>
			<path class="st0" d="M211.3,389.2l-60.3,60.3c-25,25-65.5,25-90.5,0c-25-25-25-65.5,0-90.5l120.7-120.7c25-25,65.5-25,90.5,0
				c8.3,8.3,21.8,8.3,30.2,0c8.3-8.3,8.3-21.8,0-30.2c-41.7-41.7-109.2-41.7-150.8,0L30.2,328.9c-41.7,41.7-41.7,109.2,0,150.8
				c41.6,41.7,109.2,41.7,150.9,0l60.3-60.3c8.3-8.3,8.3-21.8,0-30.2S219.6,380.9,211.3,389.2z"/>
			<path class="st0" d="M479.8,30.2c-41.7-41.7-109.2-41.7-150.9,0l-72.4,72.4c-8.3,8.3-8.3,21.8,0,30.2c8.3,8.3,21.8,8.3,30.2,0
				l72.4-72.4c25-25,65.5-25,90.5,0c25,25,25,65.5,0,90.5L316.8,283.6c-25,25-65.5,25-90.5,0c-8.3-8.3-21.8-8.3-30.2,0
				s-8.3,21.8,0,30.2c41.7,41.7,109.2,41.7,150.8,0l132.7-132.7C521.4,139.4,521.4,71.9,479.8,30.2z"/>
		</g>
	</g>
</g>
</svg>
