<svg xmlns="http://www.w3.org/2000/svg" width="76.053" height="159.534" viewBox="0 0 76.053 159.534"><defs><style>.a{fill:#2c7df7;}.b,.c{fill:#123262;}.b{font-size:28px;font-family:Museo-500, 'Museo 500';font-weight:500;}.c{font-size:19px;font-family:Constantia-Italic, Constantia;font-style:italic;}</style></defs><g transform="translate(-263.25 -1181)"><path class="a" d="M45.628,95.708q-10.3,0-15.01-4.93t-4.71-10.626a6.914,6.914,0,0,1,.821-3.506A6.026,6.026,0,0,1,28.976,74.4a6.914,6.914,0,0,1,3.506-.821,6.918,6.918,0,0,1,3.506.821,6.032,6.032,0,0,1,2.246,2.247,6.914,6.914,0,0,1,.821,3.506,6.616,6.616,0,0,1-1.2,4.108A5.594,5.594,0,0,1,35,86.342a7.789,7.789,0,0,0,4.493,2.792,22.19,22.19,0,0,0,6.135.877,13.623,13.623,0,0,0,7.724-2.3,13.393,13.393,0,0,0,5.095-6.793,29.522,29.522,0,0,0,1.643-10.19,27.71,27.71,0,0,0-1.808-10.572,13.063,13.063,0,0,0-5.205-6.574,13.9,13.9,0,0,0-7.449-2.135,14.37,14.37,0,0,0-6.574,2.191l-4.82,2.41v-2.41L55.927,24.716H25.908V54.733a10.663,10.663,0,0,0,1.643,6.136,5.679,5.679,0,0,0,5.041,2.41,8.445,8.445,0,0,0,5.039-1.754,17.812,17.812,0,0,0,4.162-4.271,1.612,1.612,0,0,1,.548-.714,1.091,1.091,0,0,1,.712-.273,2.557,2.557,0,0,1,1.425.6,2.977,2.977,0,0,1,.767,2.025,13.95,13.95,0,0,1-.275,1.535,14.507,14.507,0,0,1-5.149,6.353,12.763,12.763,0,0,1-7.229,2.191q-9.752,0-13.477-3.833T15.391,54.735V24.716H.052V19.128H15.391V6.421L11.885,2.912V.066H22.073l3.833,1.971V19.128l39.66-.109,3.945,3.943L45.191,47.284a16.31,16.31,0,0,1,4.6-1.1,19.87,19.87,0,0,1,8.874,2.52A18.334,18.334,0,0,1,66.334,55.5a24.344,24.344,0,0,1,3.451,8.217,34.835,34.835,0,0,1,.822,7.011A29.208,29.208,0,0,1,67.65,83.768a19.152,19.152,0,0,1-8.984,8.982,29.181,29.181,0,0,1-13.037,2.958Z" transform="translate(263.198 1180.934)"/><g transform="translate(263.303 1285.176)"><text class="b" transform="translate(0 26)"><tspan x="0" y="0">Tezos</tspan></text><text class="c" transform="translate(14.995 50.358)"><tspan x="0" y="0">Israel</tspan></text></g></g></svg>