<svg xmlns="http://www.w3.org/2000/svg" width="40.428" height="33.846" viewBox="0 0 40.428 33.846">
  <g id="_002-data-storage" data-name="002-data-storage" transform="translate(0 -41.675)">
    <g id="Group_2" data-name="Group 2" transform="translate(24.915 42.709)">
      <g id="Group_1" data-name="Group 1" transform="translate(0 0)">
        <path id="Path_100" data-name="Path 100" d="M315.535,54.772v2.821a4.236,4.236,0,0,1,4.231,4.231h2.821A7.059,7.059,0,0,0,315.535,54.772Z" transform="translate(-315.535 -54.772)" fill="#0277fe"/>
      </g>
    </g>
    <g id="Group_4" data-name="Group 4" transform="translate(0 65.744)">
      <g id="Group_3" data-name="Group 3" transform="translate(0 0)">
        <path id="Path_101" data-name="Path 101" d="M2.821,346.493H0a7.059,7.059,0,0,0,7.051,7.051v-2.821A4.236,4.236,0,0,1,2.821,346.493Z" transform="translate(0 -346.493)" fill="#0277fe"/>
      </g>
    </g>
    <g id="Group_6" data-name="Group 6" transform="translate(2.194 41.675)">
      <g id="Group_5" data-name="Group 5" transform="translate(0 0)">
        <path id="Path_102" data-name="Path 102" d="M60.6,60.385a9.774,9.774,0,0,0-12.444-8.933V48.1c0-1.867-1.165-3.561-3.281-4.77a14.14,14.14,0,0,0-6.9-1.655,14.142,14.142,0,0,0-6.9,1.654c-2.116,1.209-3.281,2.9-3.281,4.77V60.635c0,1.867,1.165,3.561,3.281,4.77a12.125,12.125,0,0,0,3.173,1.225c-.013.186-.021.374-.021.563a8.338,8.338,0,0,0,8.328,8.328H58.269A7.747,7.747,0,0,0,60.6,60.385ZM32.464,45.778A11.463,11.463,0,0,1,37.969,44.5a11.463,11.463,0,0,1,5.505,1.283c1.182.675,1.86,1.521,1.86,2.321s-.678,1.646-1.86,2.321A11.465,11.465,0,0,1,37.969,51.7a11.464,11.464,0,0,1-5.505-1.283C31.282,49.745,30.6,48.9,30.6,48.1S31.282,46.454,32.464,45.778Zm-1.86,6.81c.148.1.3.19.46.281a14.141,14.141,0,0,0,6.9,1.654,14.142,14.142,0,0,0,6.9-1.654q.238-.136.46-.281v.186a9.842,9.842,0,0,0-3.677,4.676,12.956,12.956,0,0,1-3.687.52,11.463,11.463,0,0,1-5.505-1.283c-1.182-.675-1.86-1.521-1.86-2.321Zm4.3,11.3a9.339,9.339,0,0,1-2.443-.93c-1.182-.675-1.86-1.521-1.86-2.321V58.857c.148.1.3.19.46.281a13.812,13.812,0,0,0,6.191,1.638A8.411,8.411,0,0,0,34.907,63.887ZM58.269,72.7H42.545a5.507,5.507,0,0,1-.059-11.014l1.3-.014.09-1.3a6.964,6.964,0,0,1,13.911.488c0,.177-.007.356-.02.533l-.1,1.313,1.3.189a4.928,4.928,0,0,1-.7,9.8Z" transform="translate(-27.784 -41.675)" fill="#0277fe"/>
      </g>
    </g>
  </g>
</svg>
